<svg xmlns="http://www.w3.org/2000/svg" fill="none" viewBox="36 30 76 73"><g clip-path="url(#clip0_1_2)"><path fill="#fff" d="M64.757 102.44q-7.584 0-13.68-2.64-6.048-2.64-9.984-7.536-3.888-4.944-4.944-11.712l12-1.824q1.536 6.144 6.288 9.504 4.8 3.36 11.04 3.36 3.696 0 6.96-1.152t5.28-3.36q2.064-2.208 2.064-5.424 0-1.44-.48-2.64a6.3 6.3 0 0 0-1.44-2.208q-.912-.96-2.4-1.728-1.44-.816-3.36-1.392l-17.856-5.28q-2.304-.672-4.992-1.776-2.64-1.152-5.04-3.12-2.352-2.016-3.888-5.088-1.488-3.12-1.488-7.68 0-6.672 3.36-11.184 3.408-4.56 9.12-6.816 5.76-2.256 12.768-2.208 7.104.048 12.672 2.448 5.568 2.352 9.312 6.864t5.28 10.896l-12.432 2.16q-.768-3.648-2.976-6.192-2.16-2.592-5.328-3.936-3.12-1.344-6.672-1.44-3.456-.048-6.432 1.056-2.928 1.056-4.752 3.072-1.776 2.016-1.776 4.704 0 2.544 1.536 4.176 1.536 1.584 3.792 2.544a42 42 0 0 0 4.656 1.536L73.35 61.88q2.544.672 5.712 1.824t6.096 3.216 4.8 5.424q1.92 3.36 1.92 8.544 0 5.376-2.256 9.456a19.8 19.8 0 0 1-6 6.72q-3.792 2.688-8.688 4.032-4.848 1.344-10.176 1.344"/><path fill="#fcb700" d="M102.63 101.82q-3.608 0-6.232-2.624-2.46-2.624-2.46-6.396 0-3.936 2.46-6.396 2.625-2.46 6.232-2.46t6.068 2.46q2.624 2.46 2.624 6.396 0 3.772-2.624 6.396-2.46 2.624-6.068 2.624"/></g><defs><clipPath id="clip0_1_2"><path fill="#fff" d="M36 30h76v73H36z"/></clipPath></defs></svg>