<svg xmlns="http://www.w3.org/2000/svg" width="128" height="128" fill="none" viewBox="0 0 128 128"><g clip-path="url(#clip0_1_49)"><path fill="#252525" d="M0 0h128v128H0z"/><path fill="#fff" d="M28.624 72.3q-2.04 0-3.3-.92-1.25-.93-1.52-2.62l2.78-.42q.17.76.75 1.19.59.43 1.49.43.74 0 1.14-.28.4-.29.4-.8 0-.32-.16-.51-.16-.2-.72-.39-.55-.19-1.72-.5-1.32-.34-2.11-.76t-1.14-1q-.35-.59-.35-1.42 0-1.04.53-1.8.53-.77 1.49-1.18.97-.42 2.28-.42 1.27 0 2.25.39t1.58 1.11q.61.72.75 1.7l-2.78.5a1.35 1.35 0 0 0-.52-.95q-.45-.35-1.22-.41-.75-.05-1.21.2-.45.25-.45.72 0 .28.19.47.2.19.81.39.62.2 1.88.52 1.23.32 1.97.75.75.42 1.09 1.02.34.59.34 1.43 0 1.66-1.2 2.61t-3.32.95M41.82 72q-1.12.21-2.2.18-1.07-.02-1.92-.37a2.6 2.6 0 0 1-1.28-1.15 3.3 3.3 0 0 1-.42-1.5 68 68 0 0 1-.02-1.74V58.2h2.72v9.06q0 .63.01 1.14.021.5.21.8.36.57 1.15.62t1.75-.08zm-7.68-8.7v-2.1h7.68v2.1zm14.107 9.02q-1.269 0-2.07-.43t-1.25-1.09a4.6 4.6 0 0 1-.63-1.37 7 7 0 0 1-.23-1.31q-.04-.59-.04-.86V61.2h2.76v5.1q0 .37.04.95.04.57.25 1.15t.68.97q.48.39 1.35.39.351 0 .75-.11.4-.11.75-.42.351-.32.57-.93.23-.62.23-1.62l1.56.74a5.6 5.6 0 0 1-.52 2.4 4.3 4.3 0 0 1-1.57 1.81q-1.04.69-2.63.69m3.5-.32v-3.58h-.34V61.2h2.74V72zm9.575.3q-1.49 0-2.61-.75t-1.75-2.04q-.62-1.29-.62-2.91 0-1.65.63-2.93.64-1.29 1.79-2.03t2.7-.74q1.54 0 2.59.75t1.59 2.04.54 2.91-.55 2.91q-.54 1.29-1.62 2.04t-2.69.75m.44-2.42q.91 0 1.45-.41.55-.41.79-1.15t.24-1.72-.24-1.72-.77-1.15q-.52-.41-1.37-.41-.91 0-1.5.45-.58.44-.86 1.19a4.6 4.6 0 0 0-.28 1.64q0 .91.27 1.66.27.74.83 1.18t1.44.44m2.48 2.12v-7.4h-.34v-7h2.74V72zm5.4-12.3v-2.4h2.72v2.4zm0 12.3V61.2h2.72V72zm9.738.32q-1.27 0-2.07-.43t-1.25-1.09a4.6 4.6 0 0 1-.63-1.37 7 7 0 0 1-.23-1.31q-.04-.59-.04-.86V61.2h2.76v5.1q0 .37.04.95.04.57.25 1.15t.68.97q.48.39 1.35.39.35 0 .75-.11t.75-.42q.35-.32.57-.93.23-.62.23-1.62l1.56.74a5.6 5.6 0 0 1-.52 2.4 4.3 4.3 0 0 1-1.57 1.81q-1.04.69-2.63.69m3.5-.32v-3.58h-.34V61.2h2.74V72zm18.195 0v-6.38q0-1.07-.51-1.66-.5-.6-1.39-.6-.57 0-.99.27-.42.26-.66.74a2.45 2.45 0 0 0-.23 1.09l-1.14-.76q0-1.11.52-1.96a3.7 3.7 0 0 1 1.41-1.32q.89-.48 1.97-.48 1.85 0 2.79 1.1.95 1.09.95 2.86V72zm-13.02 0V61.2h2.4v3.58h.34V72zm6.52 0v-6.38q0-1.07-.51-1.66-.5-.6-1.39-.6-.85 0-1.37.59-.51.58-.51 1.51l-1.14-.8q0-1.06.53-1.9a3.84 3.84 0 0 1 1.42-1.33q.9-.49 2.01-.49 1.27 0 2.08.54.82.54 1.21 1.44t.39 1.98V72z"/><path fill="#fcb700" d="M108.222 72.32q-1.409 0-2.432-1.024-.96-1.025-.96-2.496 0-1.536.96-2.496a3.43 3.43 0 0 1 2.432-.96q1.408 0 2.368.96 1.023.96 1.024 2.496 0 1.471-1.024 2.496-.96 1.024-2.368 1.024"/></g><defs><clipPath id="clip0_1_49"><path fill="#fff" d="M0 0h128v128H0z"/></clipPath></defs></svg>